<?xml version="1.0" encoding="utf-8"?>
<svg viewBox="59.308 59.829 381.384 380.341" xmlns="http://www.w3.org/2000/svg">
  <defs>
    <radialGradient gradientUnits="userSpaceOnUse" cx="199.79" cy="212.317" r="82.265" id="gradient-0" gradientTransform="matrix(2.249799, 0.249632, -0.209096, 2.083301, -155.091797, -242.194207)">
      <stop offset="0" style="stop-color: rgba(85, 87, 151, 1)"/>
      <stop offset="1" style="stop-color: rgb(51, 54, 117);"/>
    </radialGradient>
  </defs>
  <path d="M 250.001 112.715 C 269.652 112.715 284.114 133.306 301.816 142.273 C 319.523 151.239 343.594 150.502 356.102 166.44 C 368.097 182.809 362.056 207.31 366.429 227.456 C 370.798 247.595 386.656 267.002 382.307 287.155 C 377.91 307.298 355.618 317.544 343.37 333.693 C 331.118 349.841 326.58 374.971 308.885 383.961 C 291.163 392.903 269.642 380.97 250.001 380.97 C 230.359 380.97 208.838 392.903 191.118 383.961 C 173.42 374.971 168.879 349.841 156.631 333.693 C 144.384 317.54 122.092 307.297 117.694 287.153 C 113.345 267.002 129.2 247.611 133.569 227.471 C 137.942 207.326 131.904 182.809 143.899 166.437 C 156.41 150.502 180.479 151.237 198.184 142.273 C 215.889 133.306 230.35 112.715 250.001 112.715 Z" style="paint-order: fill; fill: url(#gradient-0); stroke: rgb(191, 202, 253); stroke-width: 0px;" transform="matrix(0.642793, 0.76604, -0.76604, 0.642793, 280.811737, -102.208633)"/>
</svg>